HIERARCHY
ROOT Root
{
  OFFSET 0.0 0.0 0.0
  CHANNELS 6 Xposition Yposition Zposition Zrotation Yrotation Xrotation
  JOINT Hips
  {
    OFFSET 0.0 100.0 0.0
    CHANNELS 6 Xposition Yposition Zposition Zrotation Yrotation Xrotation
    JOINT Spine1
    {
      OFFSET -0.013727 5.003763 -0.053727
      CHANNELS 3 Zrotation Yrotation Xrotation
      JOINT Spine2
      {
        OFFSET -0.0 7.125301 -0.029825
        CHANNELS 3 Zrotation Yrotation Xrotation
        JOINT Chest
        {
          OFFSET -1e-06 7.550063 -0.815971
          CHANNELS 3 Zrotation Yrotation Xrotation
          JOINT Neck1
          {
            OFFSET -0.181677 26.311295 -0.553348
            CHANNELS 3 Zrotation Yrotation Xrotation
            JOINT Neck2
            {
              OFFSET -3e-06 7.709397 2.302585
              CHANNELS 3 Zrotation Yrotation Xrotation
              JOINT Head
              {
                OFFSET -5e-06 6.128916 1.953709
                CHANNELS 3 Zrotation Yrotation Xrotation
                JOINT HeadEnd
                {
                  OFFSET 0.003598 16.065403 -1.835379
                  CHANNELS 3 Zrotation Yrotation Xrotation
                }
                JOINT Jaw
                {
                  OFFSET 0.002637 0.475592 3.094941
                  CHANNELS 3 Zrotation Yrotation Xrotation
                }
                JOINT LeftEye
                {
                  OFFSET 3.206381 5.380205 7.586883
                  CHANNELS 3 Zrotation Yrotation Xrotation
                }
                JOINT RightEye
                {
                  OFFSET -3.22244 5.361869 7.558234
                  CHANNELS 3 Zrotation Yrotation Xrotation
                }
              }
            }
          }
          JOINT LeftShoulder
          {
            OFFSET 1.621652 23.237164 5.113413
            CHANNELS 3 Zrotation Yrotation Xrotation
            JOINT LeftArm
            {
              OFFSET 14.919846 2e-06 -5.502326
              CHANNELS 3 Zrotation Yrotation Xrotation
              JOINT LeftForeArm
              {
                OFFSET 28.739307 0.0 -0.002588
                CHANNELS 3 Zrotation Yrotation Xrotation
                JOINT LeftHand
                {
                  OFFSET 27.093981 -1e-06 0.002609
                  CHANNELS 3 Zrotation Yrotation Xrotation
                  JOINT LeftHandThumb1
                  {
                    OFFSET 2.276482 -1.392045 3.191413
                    CHANNELS 3 Zrotation Yrotation Xrotation
                    JOINT LeftHandThumb2
                    {
                      OFFSET 4.012836 -1.828127 1.641654
                      CHANNELS 3 Zrotation Yrotation Xrotation
                      JOINT LeftHandThumb3
                      {
                        OFFSET 2.798515 0.0 -3e-06
                        CHANNELS 3 Zrotation Yrotation Xrotation
                        JOINT LeftHandThumbEnd
                        {
                          OFFSET 3.180793 -4e-06 4e-06
                          CHANNELS 3 Zrotation Yrotation Xrotation
                        }
                      }
                    }
                  }
                  JOINT LeftHandIndex1
                  {
                    OFFSET 3.247555 -0.531998 2.296169
                    CHANNELS 3 Zrotation Yrotation Xrotation
                    JOINT LeftHandIndex2
                    {
                      OFFSET 6.364578 0.01206 0.1786
                      CHANNELS 3 Zrotation Yrotation Xrotation
                      JOINT LeftHandIndex3
                      {
                        OFFSET 3.662364 0.0 0.0
                        CHANNELS 3 Zrotation Yrotation Xrotation
                        JOINT LeftHandIndex4
                        {
                          OFFSET 2.329242 4e-06 4e-06
                          CHANNELS 3 Zrotation Yrotation Xrotation
                          JOINT LeftHandIndexEnd
                          {
                            OFFSET 2.759615 -0.180537 -0.113024
                            CHANNELS 3 Zrotation Yrotation Xrotation
                          }
                        }
                      }
                    }
                  }
                  JOINT LeftHandMiddle1
                  {
                    OFFSET 3.163495 0.240981 1.000332
                    CHANNELS 3 Zrotation Yrotation Xrotation
                    JOINT LeftHandMiddle2
                    {
                      OFFSET 6.19078 -0.259278 -1.002548
                      CHANNELS 3 Zrotation Yrotation Xrotation
                      JOINT LeftHandMiddle3
                      {
                        OFFSET 4.35652 -4e-06 -1e-06
                        CHANNELS 3 Zrotation Yrotation Xrotation
                        JOINT LeftHandMiddle4
                        {
                          OFFSET 2.996877 -8e-06 0.0
                          CHANNELS 3 Zrotation Yrotation Xrotation
                          JOINT LeftHandMiddleEnd
                          {
                            OFFSET 2.304287 -0.294569 -0.031741
                            CHANNELS 3 Zrotation Yrotation Xrotation
                          }
                        }
                      }
                    }
                  }
                  JOINT LeftHandRing1
                  {
                    OFFSET 2.882643 -0.053652 -0.322543
                    CHANNELS 3 Zrotation Yrotation Xrotation
                    JOINT LeftHandRing2
                    {
                      OFFSET 5.854541 -0.486202 -1.373841
                      CHANNELS 3 Zrotation Yrotation Xrotation
                      JOINT LeftHandRing3
                      {
                        OFFSET 4.350578 0.0 3e-06
                        CHANNELS 3 Zrotation Yrotation Xrotation
                        JOINT LeftHandRing4
                        {
                          OFFSET 2.651321 7e-06 2e-06
                          CHANNELS 3 Zrotation Yrotation Xrotation
                          JOINT LeftHandRingEnd
                          {
                            OFFSET 1.936105 0.077687 -7.1e-05
                            CHANNELS 3 Zrotation Yrotation Xrotation
                          }
                        }
                      }
                    }
                  }
                  JOINT LeftHandPinky1
                  {
                    OFFSET 2.8655 -0.310005 -1.600378
                    CHANNELS 3 Zrotation Yrotation Xrotation
                    JOINT LeftHandPinky2
                    {
                      OFFSET 5.087849 -1.331141 -1.77123
                      CHANNELS 3 Zrotation Yrotation Xrotation
                      JOINT LeftHandPinky3
                      {
                        OFFSET 3.070974 4e-06 0.0
                        CHANNELS 3 Zrotation Yrotation Xrotation
                        JOINT LeftHandPinky4
                        {
                          OFFSET 1.549672 0.0 1e-06
                          CHANNELS 3 Zrotation Yrotation Xrotation
                          JOINT LeftHandPinkyEnd
                          {
                            OFFSET 1.944893 -0.157802 0.057219
                            CHANNELS 3 Zrotation Yrotation Xrotation
                          }
                        }
                      }
                    }
                  }
                }
              }
            }
          }
          JOINT RightShoulder
          {
            OFFSET -1.380118 23.180309 5.214158
            CHANNELS 3 Zrotation Yrotation Xrotation
            JOINT RightArm
            {
              OFFSET -15.037196 1.2e-05 -5.545604
              CHANNELS 3 Zrotation Yrotation Xrotation
              JOINT RightForeArm
              {
                OFFSET -28.736639 2e-06 -0.002597
                CHANNELS 3 Zrotation Yrotation Xrotation
                JOINT RightHand
                {
                  OFFSET -27.133619 -0.0 0.002613
                  CHANNELS 3 Zrotation Yrotation Xrotation
                  JOINT RightHandThumb1
                  {
                    OFFSET -2.274032 -1.383988 3.163127
                    CHANNELS 3 Zrotation Yrotation Xrotation
                    JOINT RightHandThumb2
                    {
                      OFFSET -4.011429 -1.827466 1.640914
                      CHANNELS 3 Zrotation Yrotation Xrotation
                      JOINT RightHandThumb3
                      {
                        OFFSET -2.794935 -4e-06 -3e-06
                        CHANNELS 3 Zrotation Yrotation Xrotation
                        JOINT RightHandThumbEnd
                        {
                          OFFSET -3.183852 4e-06 1e-06
                          CHANNELS 3 Zrotation Yrotation Xrotation
                        }
                      }
                    }
                  }
                  JOINT RightHandIndex1
                  {
                    OFFSET -3.253266 -0.520057 2.282866
                    CHANNELS 3 Zrotation Yrotation Xrotation
                    JOINT RightHandIndex2
                    {
                      OFFSET -6.341917 0.012471 0.178266
                      CHANNELS 3 Zrotation Yrotation Xrotation
                      JOINT RightHandIndex3
                      {
                        OFFSET -3.654871 -8e-06 -0.0
                        CHANNELS 3 Zrotation Yrotation Xrotation
                        JOINT RightHandIndex4
                        {
                          OFFSET -2.327586 0.0 1e-06
                          CHANNELS 3 Zrotation Yrotation Xrotation
                          JOINT RightHandIndexEnd
                          {
                            OFFSET -2.76179 -0.180656 -0.113078
                            CHANNELS 3 Zrotation Yrotation Xrotation
                          }
                        }
                      }
                    }
                  }
                  JOINT RightHandMiddle1
                  {
                    OFFSET -3.168106 0.246593 1.00103
                    CHANNELS 3 Zrotation Yrotation Xrotation
                    JOINT RightHandMiddle2
                    {
                      OFFSET -6.180828 -0.258836 -1.000895
                      CHANNELS 3 Zrotation Yrotation Xrotation
                      JOINT RightHandMiddle3
                      {
                        OFFSET -4.348901 0.0 -0.0
                        CHANNELS 3 Zrotation Yrotation Xrotation
                        JOINT RightHandMiddle4
                        {
                          OFFSET -3.00024 -4e-06 -2e-06
                          CHANNELS 3 Zrotation Yrotation Xrotation
                          JOINT RightHandMiddleEnd
                          {
                            OFFSET -2.30252 -0.29437 -0.031706
                            CHANNELS 3 Zrotation Yrotation Xrotation
                          }
                        }
                      }
                    }
                  }
                  JOINT RightHandRing1
                  {
                    OFFSET -2.88569 -0.067952 -0.308858
                    CHANNELS 3 Zrotation Yrotation Xrotation
                    JOINT RightHandRing2
                    {
                      OFFSET -5.854198 -0.48613 -1.373731
                      CHANNELS 3 Zrotation Yrotation Xrotation
                      JOINT RightHandRing3
                      {
                        OFFSET -4.33881 -4e-06 -0.0
                        CHANNELS 3 Zrotation Yrotation Xrotation
                        JOINT RightHandRing4
                        {
                          OFFSET -2.654903 -4e-06 4e-06
                          CHANNELS 3 Zrotation Yrotation Xrotation
                          JOINT RightHandRingEnd
                          {
                            OFFSET -1.933568 0.077527 -5.2e-05
                            CHANNELS 3 Zrotation Yrotation Xrotation
                          }
                        }
                      }
                    }
                  }
                  JOINT RightHandPinky1
                  {
                    OFFSET -2.866425 -0.342796 -1.584145
                    CHANNELS 3 Zrotation Yrotation Xrotation
                    JOINT RightHandPinky2
                    {
                      OFFSET -5.091371 -1.332055 -1.772385
                      CHANNELS 3 Zrotation Yrotation Xrotation
                      JOINT RightHandPinky3
                      {
                        OFFSET -3.062664 -4e-06 1e-06
                        CHANNELS 3 Zrotation Yrotation Xrotation
                        JOINT RightHandPinky4
                        {
                          OFFSET -1.546529 4e-06 -2e-06
                          CHANNELS 3 Zrotation Yrotation Xrotation
                          JOINT RightHandPinkyEnd
                          {
                            OFFSET -1.945119 -0.157718 0.057211
                            CHANNELS 3 Zrotation Yrotation Xrotation
                          }
                        }
                      }
                    }
                  }
                }
              }
            }
          }
        }
      }
    }
    JOINT LeftLeg
    {
      OFFSET 10.043214 -8.434526 2.595655
      CHANNELS 3 Zrotation Yrotation Xrotation
      JOINT LeftShin
      {
        OFFSET -1e-06 -43.221752 -0.802913
        CHANNELS 3 Zrotation Yrotation Xrotation
        JOINT LeftFoot
        {
          OFFSET 1e-06 -42.155094 -3.481523
          CHANNELS 3 Zrotation Yrotation Xrotation
          JOINT LeftToeBase
          {
            OFFSET 0.0 -5.059472 13.231529
            CHANNELS 3 Zrotation Yrotation Xrotation
            JOINT LeftToeEnd
            {
              OFFSET -0.009607 -1.647619 6.513017
              CHANNELS 3 Zrotation Yrotation Xrotation
            }
          }
        }
      }
    }
    JOINT RightLeg
    {
      OFFSET -10.047278 -8.29526 2.620317
      CHANNELS 3 Zrotation Yrotation Xrotation
      JOINT RightShin
      {
        OFFSET 1e-06 -43.362206 -0.805556
        CHANNELS 3 Zrotation Yrotation Xrotation
        JOINT RightFoot
        {
          OFFSET 2e-06 -42.117393 -3.478398
          CHANNELS 3 Zrotation Yrotation Xrotation
          JOINT RightToeBase
          {
            OFFSET -0.0 -5.079609 13.284196
            CHANNELS 3 Zrotation Yrotation Xrotation
            JOINT RightToeEnd
            {
              OFFSET 0.009532 -1.634378 6.460591
              CHANNELS 3 Zrotation Yrotation Xrotation
            }
          }
        }
      }
    }
  }
}
MOTION
Frames: 4
Frame Time: 0.03333333333333333
0.0 0.0 0.0 0.0 -0.0 0.0 -68.777885 94.562302 566.680237 2.660169 -8.189015 -4.09941 -0.600761 0.530724 -0.714039 -0.547893 2.986274 -5.37029 -3.667162 1.716952 10.625233 -0.919985 2.763014 3.901764 -0.613488 -0.208699 -3.649082 3.22981 -2.874148 -10.834166 7.7e-05 -2.2e-05 5e-06 0.001925 -0.048553 0.048522 0.582839 -3.742319 -10.432367 -0.592877 3.632958 -10.467539 -20.926424 -1.149225 14.218136 -55.176613 0.333884 7.080633 -0.293105 -25.149656 0.237981 -9.169958 -3.231911 0.871093 -5.882104 9.861284 0.702591 -10.93687 -0.360575 7.156204 -0.0 8.774824 -1e-06 -16.767195 17.699322 5.37831 -1.844032 2.498504 -2.507277 -10.163596 4.678944 4.621108 -20.976019 -2e-06 2e-06 -21.226282 2.451699 -3.593999 1e-06 -6e-06 -0.0 -1.362681 2.240798 -0.746325 -21.334911 0.584911 3.008325 -13.821209 -2e-06 3e-06 -23.887161 -0.249077 -0.839483 -60.838776 2.468984 -2.088127 -0.294025 1.679687 0.833255 -14.218205 0.093215 1.30058 -34.212048 -0.287561 0.967169 -20.033209 0.964537 1.212843 -1e-06 -0.0 -0.0 -3.440388 0.788234 0.501655 -15.928183 -3.167309 2.999707 -6.338824 0.0 2e-06 -18.12344 3.648185 -4.905672 -4e-06 0.0 -3e-06 15.904271 15.359861 16.462019 50.650787 18.683632 11.609354 -1.750948 33.2729 -0.367635 3.87927 4.70474 11.322456 2.243543 -5.255037 -3.180157 14.282893 -0.826595 6.952505 -2e-06 -12.690603 1e-06 15.931256 -17.925554 2.563332 1.665667 -1.955922 -2.878299 4.727803 -4.170588 4.993926 11.020528 3e-06 1e-06 12.109053 -3.735716 -2.866785 0.0 -0.0 1e-06 1.291985 -1.928549 -1.498089 14.800132 0.567466 3.86561 14.242576 -1.341737 -6.660658 19.631969 0.143925 -0.648246 49.513508 -0.886444 -6.697218 0.353029 -1.511151 -0.031939 20.222797 3.684308 2.316632 18.787277 5e-06 -1e-06 10.751631 -0.47987 1.397906 0.0 2e-06 -1e-06 3.273808 0.305947 -0.580111 21.486816 11.830371 2.266137 8.162928 2e-06 -1e-06 18.399084 -3.798984 -4.940575 3e-06 -2e-06 1e-06 -8.457824 6.957164 -26.681271 0.128006 0.358732 27.786367 7.628497 7.568861 4.434335 1.644501 -1.995515 -0.828747 0.0 0.0 2e-06 -9.447975 -4.502607 11.321049 0.028274 0.968247 47.826881 7.433538 7.461373 4.78683 -1.43032 0.752694 -19.830551 -0.0 0.0 -4e-06 
0.0 0.0 0.0 0.0 -0.0 0.0 -68.553543 94.423637 570.63678 2.744987 -7.247655 -3.906464 -0.807828 0.502428 -0.432469 -0.563924 2.757182 -5.255389 -3.711591 1.351629 10.343709 -0.509993 2.528462 3.128258 -0.656633 0.219912 -3.745826 3.01728 -2.996598 -10.955067 7.7e-05 -2.2e-05 6e-06 0.023922 0.079788 0.050001 0.626296 -3.616769 -10.421799 -0.591979 3.761833 -10.497995 -20.036072 -1.510519 14.08484 -56.403545 -0.519007 5.163032 -0.884847 -26.087769 0.400555 -6.177867 -3.084864 -1.425806 -5.882109 9.861289 0.702591 -10.936875 -0.360575 7.156207 0.0 8.77483 0.0 -16.437893 17.76313 5.325618 -1.844033 2.498505 -2.507278 -10.163604 4.678947 4.62111 -20.976034 -3e-06 1e-06 -21.226295 2.451698 -3.594003 -1e-06 -6e-06 1e-06 -1.362682 2.2408 -0.746324 -21.334921 0.584909 3.008322 -13.82122 -3e-06 0.0 -23.887175 -0.24908 -0.839485 -60.017254 2.411905 -2.418168 -0.294025 1.679688 0.833257 -14.218214 0.093215 1.30058 -34.212059 -0.287565 0.967169 -20.03322 0.964536 1.212844 0.0 0.0 -1e-06 -3.440389 0.788233 0.501656 -15.928192 -3.16731 2.999707 -6.338829 -1e-06 1e-06 -18.123457 3.648183 -4.905674 -4e-06 0.0 -2e-06 16.507679 14.846511 16.306013 53.524616 15.509075 10.762381 -1.419007 31.256203 -0.345886 2.701249 4.376047 10.683011 2.243543 -5.255039 -3.180157 14.282892 -0.826596 6.952503 -1e-06 -12.690608 1e-06 15.782393 -17.760023 2.447585 1.665666 -1.955923 -2.8783 4.727799 -4.170589 4.993925 11.020528 2e-06 -1e-06 12.109053 -3.735717 -2.866785 0.0 -0.0 1e-06 1.291986 -1.92855 -1.49809 14.800131 0.567467 3.865607 14.242576 -1.341741 -6.660657 19.631969 0.143922 -0.648246 49.55611 -0.753185 -6.745725 0.353029 -1.51115 -0.03194 20.222792 3.684308 2.316631 18.787275 2e-06 -3e-06 10.75163 -0.47987 1.397906 1e-06 1e-06 -0.0 3.273807 0.305947 -0.580111 21.486816 11.830374 2.266134 8.162926 2e-06 -2e-06 18.399086 -3.798986 -4.940577 3e-06 -1e-06 -2e-06 -8.715384 3.960128 -26.097771 0.072993 0.201165 31.728916 8.731456 10.835706 0.325541 1.602898 -2.029363 -0.781231 0.0 -0.0 2e-06 -8.725863 -1.052968 6.239874 0.074833 1.14628 56.989639 9.550126 6.066787 10.899367 -1.377805 0.877124 -12.177171 1e-06 0.0 -1e-06 
0.0 0.0 0.0 0.0 -0.0 0.0 -68.417259 93.696716 573.967285 2.472984 -6.163254 -3.824833 -1.138655 0.487104 0.262037 -0.628046 2.43629 -4.979713 -3.575315 0.816939 10.229322 0.392291 2.123474 1.58968 -0.565542 0.832793 -3.828342 2.755465 -2.885828 -11.811293 7.7e-05 -2.3e-05 6e-06 0.058751 0.246057 0.033797 0.701901 -3.456797 -10.484771 -0.598236 3.933411 -10.565414 -18.420702 -2.288785 14.281835 -57.552055 -1.287521 4.965803 -0.558324 -27.72752 0.266403 -4.653938 -2.415421 -2.519737 -5.88211 9.861294 0.70259 -10.936879 -0.360575 7.156209 -0.0 8.774833 -3e-06 -16.366817 17.908545 5.361093 -1.844034 2.498507 -2.507279 -10.163604 4.678948 4.62111 -20.976036 -3e-06 1e-06 -21.226299 2.451699 -3.594004 -0.0 -7e-06 1e-06 -1.362682 2.240799 -0.746324 -21.334927 0.58491 3.008324 -13.821223 -2e-06 2e-06 -23.887182 -0.249078 -0.839484 -59.793507 2.332528 -2.369147 -0.294025 1.679689 0.833256 -14.218218 0.093215 1.30058 -34.212074 -0.287563 0.967172 -20.03323 0.964537 1.212843 1e-06 -1e-06 -2e-06 -3.44039 0.788234 0.501656 -15.928194 -3.167312 2.999708 -6.33883 -1e-06 0.0 -18.123459 3.648186 -4.905674 -4e-06 0.0 -2e-06 16.654137 14.51401 16.342764 56.827442 13.240192 8.76272 -1.061675 28.397226 -0.436523 1.03243 3.943938 8.229239 2.243542 -5.255038 -3.180158 14.282894 -0.826597 6.952499 0.0 -12.690609 -2e-06 15.715374 -17.636864 2.554904 1.665667 -1.955923 -2.878298 4.7278 -4.17059 4.993923 11.020528 0.0 -2e-06 12.109056 -3.735719 -2.866789 0.0 0.0 -0.0 1.291986 -1.928549 -1.49809 14.800129 0.567466 3.865606 14.242577 -1.34174 -6.660659 19.631971 0.143924 -0.64825 49.495834 -0.756019 -6.454253 0.353031 -1.511151 -0.031938 20.222795 3.684309 2.31663 18.787279 3e-06 -3e-06 10.751631 -0.47987 1.397906 1e-06 2e-06 1e-06 3.273805 0.305948 -0.58011 21.486816 11.830376 2.266132 8.162927 1e-06 -3e-06 18.399086 -3.798988 -4.940581 2e-06 -1e-06 -0.0 -8.704057 1.401756 -26.425386 0.013449 0.1361 36.836067 8.243947 13.53766 -3.815 1.599309 -2.047903 -0.472633 -0.0 0.0 2e-06 -6.806343 3.466659 0.977127 0.184676 1.366972 65.429863 12.643801 6.448993 15.389453 -1.143469 0.990821 -0.995676 -1e-06 0.0 -1e-06 
0.0 0.0 0.0 0.0 -0.0 0.0 -68.249008 92.512199 576.817139 2.514208 -5.093567 -3.970444 -1.671038 0.505748 1.236727 -0.817663 2.06374 -4.591921 -3.682353 0.390755 10.281815 1.723219 1.715357 -0.233807 -0.565382 1.044783 -3.843311 2.75076 -2.751652 -13.462481 7.7e-05 -2.3e-05 6e-06 0.082903 0.325357 0.042335 0.739315 -3.390898 -10.525008 -0.587866 4.025879 -10.590859 -17.175581 -3.368485 14.582727 -57.2276 -1.71892 5.413651 -0.277615 -29.642553 0.081039 -4.384739 -1.49161 -3.479652 -5.882107 9.861286 0.70259 -10.936873 -0.360575 7.156206 0.0 8.774826 -2e-06 -16.296436 18.060827 5.433467 -1.844033 2.498504 -2.507277 -10.163601 4.678945 4.621108 -20.976027 -5e-06 2e-06 -21.226288 2.451695 -3.594001 -1e-06 -6e-06 0.0 -1.362682 2.240798 -0.746324 -21.334917 0.584908 3.008321 -13.821217 -5e-06 1e-06 -23.887175 -0.249081 -0.839483 -59.65757 2.402277 -2.28597 -0.294025 1.679688 0.833255 -14.218212 0.093214 1.300579 -34.212063 -0.287568 0.96717 -20.033215 0.964535 1.212844 0.0 -1e-06 -2e-06 -3.440389 0.788232 0.501656 -15.928189 -3.16731 2.999708 -6.338827 -1e-06 2e-06 -18.123447 3.648182 -4.905672 -1e-06 1e-06 -1e-06 16.745047 14.244266 16.208445 59.984375 11.741679 7.936059 -0.964854 24.060558 -0.52561 0.050569 3.382131 4.392976 2.243541 -5.255035 -3.180155 14.28289 -0.826595 6.9525 -1e-06 -12.690603 0.0 15.91291 -17.712765 2.612212 1.665667 -1.955922 -2.8783 4.727798 -4.170588 4.993923 11.020527 1e-06 -2e-06 12.109053 -3.735717 -2.866784 -0.0 0.0 -1e-06 1.291985 -1.928549 -1.49809 14.800127 0.567467 3.865608 14.242571 -1.341738 -6.660658 19.631968 0.143925 -0.648247 49.612686 -0.756598 -6.340271 0.353029 -1.51115 -0.03194 20.222788 3.684309 2.316631 18.78727 4e-06 -1e-06 10.751627 -0.479869 1.397905 0.0 2e-06 -0.0 3.273805 0.305947 -0.580112 21.486813 11.830373 2.266133 8.162928 4e-06 -0.0 18.39908 -3.798984 -4.940574 4e-06 0.0 -0.0 -9.213769 -0.349605 -26.958612 -0.040888 0.099089 42.139214 6.810221 15.323382 -7.865081 1.576932 -2.024032 0.171933 -0.0 -0.0 2e-06 -5.3963 8.001198 -4.707064 0.329025 1.535969 73.658043 14.629261 9.488523 12.605042 -1.119497 1.053844 2.270537 0.0 0.0 -1e-06 
